<?xml version="1.0" encoding="iso-8859-1"?>
<!-- Uploaded to: SVG Repo, www.svgrepo.com, Generator: SVG Repo Mixer Tools -->
<svg version="1.1" id="Layer_1" xmlns="http://www.w3.org/2000/svg" xmlns:xlink="http://www.w3.org/1999/xlink" 
	 viewBox="0 0 512 512" xml:space="preserve">
<path style="fill:#ECEDEF;" d="M486.881,503.983H25.119c-9.446,0-17.102-7.656-17.102-17.102V25.119
	c0-9.446,7.656-17.102,17.102-17.102h461.762c9.446,0,17.102,7.656,17.102,17.102v461.762
	C503.983,496.327,496.327,503.983,486.881,503.983z"/>
<path style="fill:#68727E;" d="M503.983,25.119c0-9.445-7.656-17.102-17.102-17.102H25.119c-9.446,0-17.102,7.658-17.102,17.102
	v68.409h495.967V25.119z"/>
<path style="fill:#D9DCDF;" d="M33.67,486.881V25.119c0-9.445,7.656-17.102,17.102-17.102H25.119
	c-9.446,0-17.102,7.658-17.102,17.102v461.762c0,9.445,7.656,17.102,17.102,17.102h25.653
	C41.327,503.983,33.67,496.326,33.67,486.881z"/>
<path style="fill:#55606E;" d="M50.772,8.017H25.119c-9.446,0-17.102,7.658-17.102,17.102v68.409H33.67V25.119
	C33.67,15.674,41.327,8.017,50.772,8.017z"/>
<circle style="fill:#FFC44F;" cx="67.875" cy="50.772" r="17.102"/>
<circle style="fill:#C4DF64;" cx="136.284" cy="50.772" r="17.102"/>
<circle style="fill:#FF8C78;" cx="204.693" cy="50.772" r="17.102"/>
<g>
	<rect x="136.284" y="358.614" style="fill:#B3B9BF;" width="247.983" height="34.205"/>
	<rect x="136.284" y="427.023" style="fill:#B3B9BF;" width="247.983" height="34.205"/>
</g>
<path style="fill:#509FE8;" d="M324.409,324.409H187.591V221.795c0-9.446,7.656-17.102,17.102-17.102h102.614
	c9.446,0,17.102,7.656,17.102,17.102V324.409z"/>
<path style="fill:#4D8CCF;" d="M230.347,204.693h-25.653c-9.446,0-17.102,7.658-17.102,17.102v102.614h25.653V221.795
	C213.244,212.351,220.901,204.693,230.347,204.693z"/>
<circle style="fill:#68727E;" cx="256" cy="256" r="17.102"/>
<g>
	<rect x="136.284" y="375.716" style="fill:#8E959F;" width="247.983" height="17.102"/>
	<rect x="136.284" y="444.125" style="fill:#8E959F;" width="247.983" height="17.102"/>
</g>
<path d="M511.489,20.065C509.128,8.518,498.662,0,486.881,0h-76.96c-4.428,0-8.017,3.588-8.017,8.017s3.588,8.017,8.017,8.017h76.96
	c4.953,0,9.086,4.127,9.086,9.086v60.392H16.033V25.119c0-4.953,4.133-9.086,9.086-9.086h342.046c4.428,0,8.017-3.588,8.017-8.017
	S371.593,0,367.165,0H25.119C11.429,0,0,11.423,0,25.119v324.944c0,4.428,3.589,8.017,8.017,8.017s8.017-3.588,8.017-8.017V101.545
	h479.933v385.336c0,5.01-4.076,9.086-9.086,9.086H25.119c-5.01,0-9.086-4.076-9.086-9.086v-94.063c0-4.428-3.589-8.017-8.017-8.017
	S0,388.39,0,392.818v94.063C0,500.732,11.268,512,25.119,512h461.762C500.732,512,512,500.732,512,486.881V25.119
	C512,23.422,511.829,21.721,511.489,20.065z"/>
<path d="M42.756,50.772c0,13.851,11.268,25.119,25.119,25.119s25.119-11.268,25.119-25.119S81.725,25.653,67.875,25.653
	S42.756,36.922,42.756,50.772z M76.96,50.772c0,5.01-4.076,9.086-9.086,9.086s-9.086-4.076-9.086-9.086s4.076-9.086,9.086-9.086
	S76.96,45.763,76.96,50.772z"/>
<path d="M111.165,50.772c0,13.851,11.268,25.119,25.119,25.119c13.851,0,25.119-11.268,25.119-25.119s-11.268-25.119-25.119-25.119
	C122.433,25.653,111.165,36.922,111.165,50.772z M145.37,50.772c0,5.01-4.076,9.086-9.086,9.086c-5.01,0-9.086-4.076-9.086-9.086
	s4.076-9.086,9.086-9.086C141.294,41.687,145.37,45.763,145.37,50.772z"/>
<path d="M179.574,50.772c0,13.851,11.268,25.119,25.119,25.119s25.119-11.268,25.119-25.119s-11.268-25.119-25.119-25.119
	S179.574,36.922,179.574,50.772z M213.779,50.772c0,5.01-4.076,9.086-9.086,9.086s-9.086-4.076-9.086-9.086s4.076-9.086,9.086-9.086
	S213.779,45.763,213.779,50.772z"/>
<path d="M128.267,358.614v34.205c0,4.428,3.589,8.017,8.017,8.017h247.983c4.428,0,8.017-3.588,8.017-8.017v-34.205
	c0-4.428-3.588-8.017-8.017-8.017H136.284C131.857,350.597,128.267,354.185,128.267,358.614z M144.301,366.63h231.95v18.171h-231.95
	V366.63z"/>
<path d="M128.267,461.228c0,4.428,3.589,8.017,8.017,8.017h247.983c4.428,0,8.017-3.588,8.017-8.017v-34.205
	c0-4.428-3.588-8.017-8.017-8.017H136.284c-4.427,0-8.017,3.588-8.017,8.017V461.228z M144.301,435.04h231.95v18.171h-231.95V435.04
	z"/>
<path d="M461.228,58.789c4.428,0,8.017-3.588,8.017-8.017s-3.588-8.017-8.017-8.017h-17.102c-4.428,0-8.017,3.588-8.017,8.017
	s3.588,8.017,8.017,8.017H461.228z"/>
<path d="M282.188,50.772c0,4.428,3.588,8.017,8.017,8.017h128.267c4.428,0,8.017-3.588,8.017-8.017s-3.588-8.017-8.017-8.017
	H290.205C285.776,42.756,282.188,46.344,282.188,50.772z"/>
<path d="M204.693,196.676c-13.851,0-25.119,11.268-25.119,25.119v102.614c0,4.428,3.589,8.017,8.017,8.017h136.818
	c4.428,0,8.017-3.588,8.017-8.017V221.795c0-13.851-11.268-25.119-25.119-25.119h-0.534v-26.188
	c0-23.281-18.941-42.221-42.221-42.221h-17.102c-23.281,0-42.221,18.941-42.221,42.221v8.551c0,4.428,3.589,8.017,8.017,8.017
	s8.017-3.588,8.017-8.017v-8.551c0-14.441,11.748-26.188,26.188-26.188h17.102c14.441,0,26.188,11.747,26.188,26.188v26.188H204.693
	z M316.392,221.795v94.597H195.608v-94.597c0-5.01,4.076-9.086,9.086-9.086h102.614C312.317,212.71,316.392,216.786,316.392,221.795
	z"/>
<path d="M256,230.881c-13.851,0-25.119,11.268-25.119,25.119c0,11.048,7.172,20.446,17.102,23.8v18.956
	c0,4.428,3.589,8.017,8.017,8.017c4.428,0,8.017-3.588,8.017-8.017V279.8c9.93-3.354,17.102-12.752,17.102-23.8
	C281.119,242.149,269.851,230.881,256,230.881z M256,265.086c-5.01,0-9.086-4.076-9.086-9.086c0-5.01,4.076-9.086,9.086-9.086
	c5.01,0,9.086,4.076,9.086,9.086C265.086,261.01,261.01,265.086,256,265.086z"/>
</svg>